# xmcd
#
# Track frame offsets:
#	150
#	27084
#	51173
#	67079
#	88971
#	106722
#	125803
#	146678
#	158839
#	178432
#	196231
#	220188
#	238474
#	261613
#	277189
#	299026
#	317086
#	343469
#
# Disc length: 4775 seconds
#
# Revision: 0
# Processed by: cddbd v1.4PL0 Copyright (c) Steve Scherf et al.
# Submitted via: dBpowerAMP V4.0
#
DISCID=3b12a512
DTITLE=Mark Knopfler - Greatest Hits I
DYEAR=2002
DGENRE=Blues
TTITLE0=Why Aye Man
TTITLE1=Sailing To Philadelphia
TTITLE2=Hill Farmer's Blues
TTITLE3=Golden Heart
TTITLE4=Poor Boy Blues (with Chat Atkins)
TTITLE5=A Place Where We Used To Love
TTITLE6=A Night In Summer Long Ago
TTITLE7=Daddy's Gone To Knoxville
TTITLE8=Prairie Wedding
TTITLE9=Devil Baby
TTITLE10=Imelda
TTITLE11=Just One Time (with Chat Atkins)
TTITLE12=Don't You Get It
TTITLE13=Marbletown
TTITLE14=What It Is
TTITLE15=One More Matinee
TTITLE16=Rudiger
TTITLE17=Tahitian Skies (with Chat Atkins)
EXTD=
EXTT0=
EXTT1=
EXTT2=
EXTT3=
EXTT4=
EXTT5=
EXTT6=
EXTT7=
EXTT8=
EXTT9=
EXTT10=
EXTT11=
EXTT12=
EXTT13=
EXTT14=
EXTT15=
EXTT16=
EXTT17=
PLAYORDER=
